<svg xmlns="http://www.w3.org/2000/svg" viewBox="0 0 64 64" width="64" height="64">
  <defs>
    <radialGradient id="sky" cx="35%" cy="25%" r="90%">
      <stop offset="0%" stop-color="#1b2350"/>
      <stop offset="55%" stop-color="#0d1030"/>
      <stop offset="100%" stop-color="#070a16"/>
    </radialGradient>
    <clipPath id="r"><rect x="2" y="2" width="60" height="60" rx="16"/></clipPath>
  </defs>
  <g clip-path="url(#r)">
    <rect x="2" y="2" width="60" height="60" fill="url(#sky)"/>
    <!-- nebula glows -->
    <circle cx="14" cy="12" r="16" fill="#a78bfa" opacity="0.28"/>
    <circle cx="54" cy="52" r="16" fill="#5eead4" opacity="0.22"/>
    <!-- stars -->
    <circle cx="12" cy="40" r="1.1" fill="#fff"/>
    <circle cx="50" cy="16" r="1.1" fill="#cfe0ff"/>
    <circle cx="44" cy="30" r="0.9" fill="#fff"/>
    <circle cx="20" cy="22" r="0.8" fill="#dfe8ff"/>
    <circle cx="30" cy="52" r="0.9" fill="#fff"/>
    <!-- rocket -->
    <g transform="rotate(45 32 33)">
      <path d="M32 14 C40 20 40 34 32 40 C24 34 24 20 32 14 Z" fill="#eef2ff"/>
      <circle cx="32" cy="26" r="3.6" fill="#5eead4"/>
      <path d="M24 34 L20 42 L27 38 Z" fill="#a78bfa"/>
      <path d="M40 34 L44 42 L37 38 Z" fill="#a78bfa"/>
      <path d="M28.5 40 L32 50 L35.5 40 Z" fill="#ff7a59"/>
    </g>
  </g>
  <rect x="2" y="2" width="60" height="60" rx="16" fill="none" stroke="#5eead4" stroke-width="2" opacity="0.8"/>
</svg>
